<svg width="14" height="14" viewBox="0 0 14 14" fill="none" xmlns="http://www.w3.org/2000/svg">
<path fill-rule="evenodd" clip-rule="evenodd" d="M5.58465 8.63725L5.66405 8.63727L5.84003 8.63775C7.33466 8.64574 10.836 8.7816 10.836 11.0913C10.836 13.2326 7.96038 13.5188 5.72358 13.5296L5.32926 13.5294C3.83464 13.5214 0.333313 13.3856 0.333313 11.0766C0.333313 8.88992 3.32998 8.63725 5.58465 8.63725ZM5.58465 9.63725C2.76398 9.63725 1.33331 10.1219 1.33331 11.0766C1.33331 12.0406 2.76398 12.5299 5.58465 12.5299C8.40531 12.5299 9.83598 12.0453 9.83598 11.0913C9.83598 10.1259 8.40531 9.63725 5.58465 9.63725ZM11.8027 4.27905C12.0787 4.27905 12.3027 4.50305 12.3027 4.77905L12.3026 5.61525L13.1666 5.61579C13.4426 5.61579 13.6666 5.83979 13.6666 6.11579C13.6666 6.39179 13.4426 6.61579 13.1666 6.61579L12.3026 6.61525L12.3027 7.45305C12.3027 7.72905 12.0787 7.95305 11.8027 7.95305C11.5267 7.95305 11.3027 7.72905 11.3027 7.45305L11.3026 6.61525L10.44 6.61579C10.164 6.61579 9.93998 6.39179 9.93998 6.11579C9.93998 5.83979 10.164 5.61579 10.44 5.61579L11.3026 5.61525L11.3027 4.77905C11.3027 4.50305 11.5267 4.27905 11.8027 4.27905ZM5.58465 0.333252C7.53998 0.333252 9.12998 1.92392 9.12998 3.87859C9.12998 5.83325 7.53998 7.42392 5.58465 7.42392H5.56398C4.61798 7.42059 3.73131 7.04925 3.06665 6.37992C2.40131 5.70992 2.03665 4.82059 2.03996 3.87659C2.03996 1.92392 3.62998 0.333252 5.58465 0.333252ZM5.58465 1.33325C4.18198 1.33325 3.03996 2.47525 3.03996 3.87859C3.03731 4.55792 3.29865 5.19459 3.77531 5.67525C4.25265 6.15525 4.88865 6.42125 5.56598 6.42392L5.58465 6.91792V6.42392C6.98798 6.42392 8.12998 5.28192 8.12998 3.87859C8.12998 2.47525 6.98798 1.33325 5.58465 1.33325Z" fill="#666E83"/>
</svg>
