<svg width="20" height="21" viewBox="0 0 20 21" fill="none" xmlns="http://www.w3.org/2000/svg">
<path d="M6.30865 10.4893C6.14289 10.4893 5.98392 10.5551 5.86671 10.6723C5.7495 10.7895 5.68365 10.9485 5.68365 11.1143C5.682 11.2399 5.71773 11.3631 5.78631 11.4684C5.85489 11.5736 5.95321 11.6561 6.06879 11.7053C6.18436 11.7545 6.31195 11.7682 6.43535 11.7448C6.55875 11.7213 6.67238 11.6616 6.76179 11.5734C6.8512 11.4851 6.91235 11.3723 6.93747 11.2492C6.96259 11.1262 6.95054 10.9984 6.90286 10.8822C6.85518 10.766 6.77402 10.6666 6.66969 10.5966C6.56537 10.5266 6.4426 10.4893 6.31698 10.4893H6.30865Z" fill="#666E83"/>
<path d="M6.30865 13.7305C6.22626 13.7294 6.14449 13.7448 6.06815 13.7758C5.99182 13.8068 5.92247 13.8528 5.86421 13.9111C5.80595 13.9693 5.75995 14.0387 5.72894 14.115C5.69793 14.1914 5.68253 14.2731 5.68365 14.3555C5.70145 14.5099 5.77539 14.6524 5.89141 14.7558C6.00742 14.8592 6.15741 14.9163 6.31282 14.9163C6.46823 14.9163 6.61821 14.8592 6.73423 14.7558C6.85024 14.6524 6.92419 14.5099 6.94198 14.3555C6.94199 14.2727 6.92555 14.1908 6.89362 14.1144C6.86169 14.038 6.81491 13.9688 6.75599 13.9106C6.69707 13.8525 6.62718 13.8066 6.55039 13.7757C6.47359 13.7448 6.39143 13.7294 6.30865 13.7305Z" fill="#666E83"/>
<path d="M16.9334 3.61397C16.1335 2.86631 15.0864 2.43917 13.9918 2.41396V1.68896C13.9918 1.5232 13.9259 1.36423 13.8087 1.24702C13.6915 1.12981 13.5325 1.06396 13.3668 1.06396C13.201 1.06396 13.042 1.12981 12.9248 1.24702C12.8076 1.36423 12.7418 1.5232 12.7418 1.68896V2.38063H7.25843V1.68896C7.25843 1.5232 7.19258 1.36423 7.07537 1.24702C6.95816 1.12981 6.79919 1.06396 6.63343 1.06396C6.46767 1.06396 6.3087 1.12981 6.19149 1.24702C6.07428 1.36423 6.00843 1.5232 6.00843 1.68896V2.41396C5.43582 2.41256 4.86907 2.52919 4.34355 2.75659C3.81803 2.98398 3.34502 3.31725 2.95404 3.7356C2.56306 4.15395 2.2625 4.64839 2.07113 5.18808C1.87976 5.72776 1.80168 6.3011 1.84177 6.8723V14.3723C1.84177 17.189 3.60843 18.939 6.44176 18.939H10.1584C10.3242 18.939 10.4832 18.8731 10.6004 18.7559C10.7176 18.6387 10.7834 18.4797 10.7834 18.314C10.7834 18.1482 10.7176 17.9892 10.6004 17.872C10.4832 17.7548 10.3242 17.689 10.1584 17.689H6.4751C4.31677 17.689 3.14176 16.514 3.14176 14.3556V8.48063H16.8918V11.1473C16.8918 11.3131 16.9576 11.472 17.0748 11.5892C17.192 11.7065 17.351 11.7723 17.5168 11.7723C17.6825 11.7723 17.8415 11.7065 17.9587 11.5892C18.0759 11.472 18.1418 11.3131 18.1418 11.1473V6.8723C18.1678 6.27605 18.0743 5.68062 17.8668 5.12105C17.6593 4.56147 17.3419 4.04906 16.9334 3.61397ZM3.1251 7.23063V6.8723C3.08184 6.46778 3.12418 6.05869 3.24937 5.6716C3.37455 5.28452 3.57978 4.9281 3.85172 4.62552C4.12365 4.32293 4.4562 4.08095 4.82777 3.91529C5.19934 3.74963 5.60161 3.664 6.00843 3.66396V4.43063C6.00843 4.59639 6.07428 4.75536 6.19149 4.87257C6.3087 4.98978 6.46767 5.05563 6.63343 5.05563C6.79919 5.05563 6.95816 4.98978 7.07537 4.87257C7.19258 4.75536 7.25843 4.59639 7.25843 4.43063V3.5973H12.7418V4.43063C12.7418 4.59639 12.8076 4.75536 12.9248 4.87257C13.042 4.98978 13.201 5.05563 13.3668 5.05563C13.5325 5.05563 13.6915 4.98978 13.8087 4.87257C13.9259 4.75536 13.9918 4.59639 13.9918 4.43063V3.66396C14.7552 3.68787 15.4851 3.98336 16.0501 4.4973C16.3411 4.81709 16.5649 5.19214 16.708 5.60015C16.8512 6.00815 16.9108 6.44078 16.8834 6.8723V7.23063H3.1251Z" fill="#666E83"/>
<path d="M14.1666 11.064C13.3837 11.064 12.6184 11.2961 11.9675 11.7311C11.3165 12.166 10.8092 12.7842 10.5096 13.5075C10.21 14.2308 10.1316 15.0267 10.2843 15.7945C10.437 16.5624 10.814 17.2677 11.3676 17.8213C11.9212 18.3748 12.6265 18.7518 13.3944 18.9046C14.1622 19.0573 14.9581 18.9789 15.6814 18.6793C16.4047 18.3797 17.0229 17.8724 17.4578 17.2214C17.8928 16.5705 18.1249 15.8052 18.1249 15.0223C18.1249 13.9725 17.7079 12.9657 16.9656 12.2233C16.2232 11.481 15.2164 11.064 14.1666 11.064ZM14.1666 17.7306C13.6309 17.7306 13.1073 17.5718 12.6619 17.2742C12.2165 16.9766 11.8694 16.5536 11.6644 16.0587C11.4594 15.5638 11.4058 15.0193 11.5103 14.4939C11.6148 13.9686 11.8727 13.486 12.2515 13.1072C12.6303 12.7285 13.1129 12.4705 13.6382 12.366C14.1636 12.2615 14.7081 12.3151 15.203 12.5201C15.6979 12.7251 16.1209 13.0722 16.4185 13.5176C16.7161 13.963 16.8749 14.4866 16.8749 15.0223C16.8727 15.7399 16.5867 16.4275 16.0792 16.935C15.5718 17.4424 14.8842 17.7284 14.1666 17.7306Z" fill="#666E83"/>
<path d="M14.8167 14.3976V13.356C14.8167 13.1902 14.7508 13.0312 14.6336 12.914C14.5164 12.7968 14.3574 12.731 14.1917 12.731C14.0259 12.731 13.8669 12.7968 13.7497 12.914C13.6325 13.0312 13.5667 13.1902 13.5667 13.356V14.4226H12.5C12.3342 14.4226 12.1753 14.4885 12.0581 14.6057C11.9408 14.7229 11.875 14.8819 11.875 15.0476C11.875 15.2134 11.9408 15.3724 12.0581 15.4896C12.1753 15.6068 12.3342 15.6726 12.5 15.6726H13.5667V16.6893C13.5667 16.855 13.6325 17.014 13.7497 17.1312C13.8669 17.2484 14.0259 17.3143 14.1917 17.3143C14.3574 17.3143 14.5164 17.2484 14.6336 17.1312C14.7508 17.014 14.8167 16.855 14.8167 16.6893V15.6476H15.875C16.0408 15.6476 16.1997 15.5818 16.3169 15.4646C16.4342 15.3474 16.5 15.1884 16.5 15.0226C16.5 14.8569 16.4342 14.6979 16.3169 14.5807C16.1997 14.4635 16.0408 14.3976 15.875 14.3976H14.8167Z" fill="#666E83"/>
</svg>
