<svg width="20" height="20" viewBox="0 0 20 20" fill="none" xmlns="http://www.w3.org/2000/svg">
<g clip-path="url(#clip0_181_2066)">
<path d="M11.8502 0C12.8877 0 13.8826 0.438998 14.6162 1.22042C15.3498 2.00184 15.762 3.06167 15.762 4.16677V14.167C15.762 14.9331 15.6203 15.6916 15.3451 16.3994C15.0699 17.1071 14.6665 17.7502 14.158 18.2919C13.6494 18.8336 13.0457 19.2633 12.3813 19.5564C11.7168 19.8496 11.0047 20.0005 10.2855 20.0005C9.56635 20.0005 8.85421 19.8496 8.18978 19.5564C7.52535 19.2633 6.92163 18.8336 6.41309 18.2919C5.90456 17.7502 5.50117 17.1071 5.22595 16.3994C4.95073 15.6916 4.80908 14.9331 4.80908 14.167V7.50018H6.37378V14.167C6.37378 15.2721 6.78591 16.3319 7.5195 17.1134C8.2531 17.8948 9.24806 18.3338 10.2855 18.3338C11.323 18.3338 12.3179 17.8948 13.0515 17.1134C13.7851 16.3319 14.1973 15.2721 14.1973 14.167V4.16677C14.1973 3.83846 14.1366 3.51336 14.0186 3.21004C13.9007 2.90672 13.7278 2.63111 13.5098 2.39896C13.2919 2.16681 13.0332 1.98265 12.7484 1.85701C12.4636 1.73137 12.1584 1.66671 11.8502 1.66671C11.542 1.66671 11.2368 1.73137 10.952 1.85701C10.6673 1.98265 10.4086 2.16681 10.1906 2.39896C9.97266 2.63111 9.79978 2.90672 9.68183 3.21004C9.56388 3.51336 9.50317 3.83846 9.50317 4.16677V14.167C9.50317 14.388 9.5856 14.6 9.73232 14.7563C9.87904 14.9126 10.078 15.0004 10.2855 15.0004C10.493 15.0004 10.692 14.9126 10.8387 14.7563C10.9854 14.6 11.0679 14.388 11.0679 14.167V5.00012H12.6326V14.167C12.6326 14.8301 12.3853 15.466 11.9451 15.9348C11.505 16.4037 10.908 16.6671 10.2855 16.6671C9.66305 16.6671 9.06607 16.4037 8.62591 15.9348C8.18575 15.466 7.93848 14.8301 7.93848 14.167V4.16677C7.93848 3.06167 8.35061 2.00184 9.0842 1.22042C9.81779 0.438998 10.8128 0 11.8502 0V0Z" fill="#666E83"/>
</g>
<defs>
<clipPath id="clip0_181_2066">
<rect width="20" height="20" fill="white"/>
</clipPath>
</defs>
</svg>
