<svg width="20" height="20" viewBox="0 0 20 20" fill="none" xmlns="http://www.w3.org/2000/svg">
<g clip-path="url(#clip0_181_3091)">
<path d="M13.3174 1.33196C13.901 1.56427 14.3137 1.98299 14.6836 2.59686L14.8055 2.80872L15.2578 3.67587L15.2726 3.70008L15.2862 3.72116L15.3246 3.77367C15.5306 3.99817 15.8754 4.1338 16.103 4.1338C18.1878 4.1338 19.8905 5.77106 19.9949 7.82933L20 8.0298V13.8248C20 16.4968 17.8898 18.6773 15.2455 18.7902L15.03 18.7948H4.97C2.29734 18.7948 0.117471 16.6849 0.00459172 14.0404L0 13.8248V8.0298C0 5.87839 1.74498 4.1338 3.897 4.1338C4.12378 4.1338 4.46908 3.99797 4.67544 3.77367L4.68255 3.76529L4.69145 3.75363L4.74288 3.67475L5.19382 2.809C5.59577 2.07847 6.03303 1.59012 6.68188 1.33187C7.87089 0.859088 12.1293 0.859088 13.3174 1.33196ZM7.23635 2.72563C7.01496 2.81375 6.81452 3.01771 6.60062 3.3713L6.50802 3.5321L6.12316 4.2762L6.02843 4.44763C5.94936 4.57915 5.87026 4.69018 5.77995 4.78859C5.31953 5.28905 4.65847 5.5781 4.07082 5.62652L3.897 5.6338L3.73291 5.63933C2.53997 5.71999 1.58621 6.67352 1.50553 7.86579L1.5 8.0298V13.8248C1.5 15.6771 2.95174 17.1908 4.77961 17.2897L4.97 17.2948H15.03C16.8819 17.2948 18.396 15.8425 18.4949 14.0151L18.5 13.8248V8.0298C18.5 6.76201 17.5143 5.72365 16.2671 5.63933L16.103 5.6338L15.9289 5.62652C15.3403 5.57809 14.6793 5.28896 14.2194 4.78792C14.1303 4.69082 14.0517 4.58058 13.9731 4.45017L13.9542 4.41784L13.9317 4.37768L13.8156 4.15994L13.4917 3.53238C13.2729 3.13527 13.0726 2.89257 12.8564 2.77061L12.7626 2.72563L12.6433 2.68596C11.6142 2.39508 8.03441 2.4083 7.23635 2.72563ZM9.9997 7.1765C12.1699 7.1765 13.9287 8.93528 13.9287 11.1055C13.9287 13.2757 12.1699 15.0345 9.9997 15.0345C7.82949 15.0345 6.0707 13.2757 6.0707 11.1055C6.0707 8.93528 7.82949 7.1765 9.9997 7.1765ZM9.9997 8.6765C8.65791 8.6765 7.5707 9.76371 7.5707 11.1055C7.5707 12.4473 8.65791 13.5345 9.9997 13.5345C11.3415 13.5345 12.4287 12.4473 12.4287 11.1055C12.4287 9.76371 11.3415 8.6765 9.9997 8.6765ZM15.5043 6.4775C16.0566 6.4775 16.5043 6.92521 16.5043 7.4775C16.5043 7.99033 16.1183 8.413 15.6209 8.47077L15.5043 8.4775C14.943 8.4775 14.4953 8.02978 14.4953 7.4775C14.4953 6.96466 14.8813 6.54199 15.3787 6.48422L15.5043 6.4775Z" fill="#666E83"/>
</g>
<defs>
<clipPath id="clip0_181_3091">
<rect width="20" height="20" fill="white"/>
</clipPath>
</defs>
</svg>
