<svg width="22" height="22" viewBox="0 0 22 22" fill="none" xmlns="http://www.w3.org/2000/svg">
<path fill-rule="evenodd" clip-rule="evenodd" d="M11.2484 0.000244141C14.1214 0.000244141 16.8214 1.11724 18.8494 3.14624C23.0414 7.33824 23.0414 14.1582 18.8494 18.3502C16.7944 20.4062 14.0274 21.4942 11.2244 21.4942C9.69644 21.4942 8.15844 21.1712 6.71944 20.5052C6.29544 20.3352 5.89844 20.1752 5.61344 20.1752C5.28544 20.1772 4.84444 20.3292 4.41844 20.4762C3.54444 20.7762 2.45644 21.1502 1.65144 20.3482C0.849437 19.5452 1.21944 18.4602 1.51744 17.5872C1.66444 17.1572 1.81544 16.7132 1.81544 16.3772C1.81544 16.1012 1.68244 15.7492 1.47844 15.2422C-0.394563 11.1972 0.471437 6.32224 3.64844 3.14724C5.67644 1.11824 8.37544 0.000244141 11.2484 0.000244141ZM11.2494 1.50024C8.77644 1.50024 6.45344 2.46224 4.70844 4.20824C1.97444 6.94024 1.23044 11.1352 2.85544 14.6482C3.08944 15.2272 3.31544 15.7912 3.31544 16.3772C3.31544 16.9622 3.11444 17.5512 2.93744 18.0712C2.79144 18.4992 2.57044 19.1452 2.71244 19.2872C2.85144 19.4312 3.50144 19.2042 3.93044 19.0572C4.44544 18.8812 5.02944 18.6792 5.60844 18.6752C6.18844 18.6752 6.73544 18.8952 7.31444 19.1282C10.8614 20.7682 15.0564 20.0222 17.7894 17.2902C21.3954 13.6822 21.3954 7.81324 17.7894 4.20724C16.0434 2.46124 13.7214 1.50024 11.2494 1.50024ZM15.1963 10.1629C15.7483 10.1629 16.1963 10.6099 16.1963 11.1629C16.1963 11.7159 15.7483 12.1629 15.1963 12.1629C14.6443 12.1629 14.1923 11.7159 14.1923 11.1629C14.1923 10.6099 14.6353 10.1629 15.1873 10.1629H15.1963ZM11.1875 10.1629C11.7395 10.1629 12.1875 10.6099 12.1875 11.1629C12.1875 11.7159 11.7395 12.1629 11.1875 12.1629C10.6355 12.1629 10.1835 11.7159 10.1835 11.1629C10.1835 10.6099 10.6255 10.1629 11.1785 10.1629H11.1875ZM7.17834 10.1629C7.73034 10.1629 8.17834 10.6099 8.17834 11.1629C8.17834 11.7159 7.73034 12.1629 7.17834 12.1629C6.62634 12.1629 6.17434 11.7159 6.17434 11.1629C6.17434 10.6099 6.61734 10.1629 7.16934 10.1629H7.17834Z" fill="#666E83"/>
</svg>
