<svg width="20" height="20" viewBox="0 0 20 20" fill="none" xmlns="http://www.w3.org/2000/svg">
<path fill-rule="evenodd" clip-rule="evenodd" d="M13.9006 1C16.9507 1 19 3.1402 19 6.3244V13.6756C19 16.8598 16.9507 19 13.8997 19H6.0985C3.0484 19 1 16.8598 1 13.6756V6.3244C1 3.1402 3.0484 1 6.0985 1H13.9006ZM13.9006 2.35H6.0985C3.8215 2.35 2.35 3.9097 2.35 6.3244V13.6756C2.35 16.0903 3.8215 17.65 6.0985 17.65H13.8997C16.1776 17.65 17.65 16.0903 17.65 13.6756V6.3244C17.65 3.9097 16.1776 2.35 13.9006 2.35ZM13.6805 7.3873C13.9443 7.651 13.9443 8.0776 13.6805 8.3413L9.40915 12.6127C9.27775 12.745 9.10495 12.8107 8.93215 12.8107C8.76025 12.8107 8.58655 12.745 8.45515 12.6127L6.31855 10.477C6.05485 10.2133 6.05485 9.7867 6.31855 9.523C6.58225 9.2593 7.00885 9.2593 7.27255 9.523L8.93215 11.1808L12.7266 7.3873C12.9902 7.1236 13.4169 7.1236 13.6805 7.3873Z" fill="#666E83"/>
</svg>
