<svg width="27" height="32" viewBox="0 0 27 32" fill="none" xmlns="http://www.w3.org/2000/svg">
<path d="M8.08162 24.8477C8.38787 24.6837 8.72256 24.5237 9.08568 24.3717C8.77892 24.7899 8.45042 25.1943 8.10131 25.5837C7.48881 26.2577 7.01193 26.6157 6.71224 26.7277C6.68736 26.7373 6.66178 26.7454 6.63568 26.7517C6.61385 26.724 6.59481 26.6946 6.57881 26.6637C6.45631 26.4437 6.46068 26.2317 6.66631 25.9437C6.89818 25.6137 7.36412 25.2357 8.08162 24.8477ZM13.4519 21.5537C13.1916 21.6037 12.9335 21.6537 12.6732 21.7097C13.0588 21.019 13.4235 20.3188 13.7669 19.6097C14.1127 20.1956 14.4849 20.7681 14.8826 21.3257C14.4079 21.3897 13.9288 21.4657 13.4519 21.5537ZM18.9754 23.4317C18.6356 23.1812 18.3175 22.907 18.0238 22.6117C18.5226 22.6217 18.9732 22.6557 19.3626 22.7197C20.056 22.8337 20.3819 23.0137 20.4957 23.1377C20.5315 23.1724 20.5518 23.218 20.5526 23.2657C20.5449 23.4068 20.4998 23.5441 20.4213 23.6657C20.3772 23.7632 20.3064 23.8486 20.2157 23.9137C20.1705 23.9391 20.1173 23.9496 20.0647 23.9437C19.8679 23.9377 19.5004 23.8117 18.9754 23.4317ZM14.1082 13.9397C14.0207 14.4277 13.8719 14.9877 13.6707 15.5977C13.5965 15.3693 13.5316 15.1385 13.476 14.9057C13.3097 14.1997 13.2857 13.6457 13.3754 13.2617C13.4585 12.9077 13.616 12.7657 13.8041 12.6957C13.905 12.6551 14.0119 12.6281 14.1213 12.6157C14.1497 12.6757 14.1826 12.7997 14.1913 13.0117C14.2022 13.2557 14.176 13.5657 14.1082 13.9417V13.9397Z" fill="#A1A9BB"/>
<path fill-rule="evenodd" clip-rule="evenodd" d="M4.75 0H16.3284C16.9086 0.000113275 17.4649 0.210901 17.875 0.586L25.9841 8C26.3943 8.37499 26.6249 8.88361 26.625 9.414V28C26.625 29.0609 26.1641 30.0783 25.3436 30.8284C24.5231 31.5786 23.4103 32 22.25 32H4.75C3.58968 32 2.47688 31.5786 1.65641 30.8284C0.835936 30.0783 0.375 29.0609 0.375 28V4C0.375 2.93913 0.835936 1.92172 1.65641 1.17157C2.47688 0.421427 3.58968 0 4.75 0V0ZM16.7812 3V7C16.7812 7.53043 17.0117 8.03914 17.422 8.41421C17.8322 8.78929 18.3886 9 18.9688 9H23.3438L16.7812 3ZM5.11094 27.336C5.30781 27.696 5.61406 28.022 6.06906 28.174C6.52188 28.324 6.97031 28.254 7.33781 28.114C8.03344 27.854 8.72688 27.242 9.36344 26.542C10.0919 25.74 10.8575 24.688 11.5969 23.522C13.0243 23.1352 14.486 22.8635 15.9653 22.71C16.6216 23.476 17.2997 24.136 17.9559 24.61C18.5684 25.05 19.275 25.416 19.9991 25.444C20.3935 25.4619 20.7839 25.3652 21.1147 25.168C21.4538 24.966 21.7053 24.674 21.8891 24.336C22.0859 23.974 22.2062 23.596 22.1909 23.21C22.1771 22.8294 22.0229 22.4643 21.7534 22.174C21.2591 21.634 20.4497 21.374 19.6534 21.244C18.6875 21.1072 17.7075 21.0737 16.7331 21.144C15.9103 20.0805 15.1929 18.952 14.5894 17.772C15.1363 16.452 15.5453 15.204 15.7269 14.184C15.8056 13.748 15.8472 13.332 15.8319 12.956C15.8292 12.5828 15.7342 12.2149 15.5541 11.88C15.4503 11.6952 15.3028 11.5337 15.1223 11.4075C14.9419 11.2812 14.7329 11.1933 14.5106 11.15C14.0687 11.064 13.6138 11.15 13.1959 11.304C12.3713 11.604 11.9359 12.244 11.7719 12.95C11.6122 13.63 11.6844 14.422 11.8725 15.222C12.065 16.034 12.3931 16.918 12.8131 17.812C12.1413 19.3396 11.3654 20.8272 10.49 22.266C9.36265 22.5903 8.27598 23.0227 7.24813 23.556C6.43875 23.996 5.71906 24.516 5.28594 25.13C4.82656 25.782 4.68437 26.558 5.11094 27.336Z" fill="#A1A9BB"/>
</svg>
