<svg width="20" height="20" viewBox="0 0 20 20" fill="none" xmlns="http://www.w3.org/2000/svg">
<path fill-rule="evenodd" clip-rule="evenodd" d="M5.367 5.12272C5.781 5.12272 6.117 5.48643 6.117 5.93457C6.117 6.3827 5.781 6.74641 5.367 6.74641H4.426C2.812 6.74641 1.5 8.16551 1.5 9.91151V15.1993C1.5 16.9518 2.816 18.3763 4.435 18.3763H15.575C17.187 18.3763 18.5 16.955 18.5 15.2101V9.92342C18.5 8.17092 17.183 6.74641 15.566 6.74641H14.634C14.22 6.74641 13.884 6.3827 13.884 5.93457C13.884 5.48643 14.22 5.12272 14.634 5.12272H15.566C18.011 5.12272 20 7.27681 20 9.92342V15.2101C20 17.8513 18.014 20 15.575 20H4.435C1.99 20 0 17.847 0 15.1993V9.91151C0 7.27032 1.985 5.12272 4.426 5.12272H5.367ZM10.0008 0C10.4148 0 10.7508 0.363705 10.7508 0.811842L10.75 11.881L12.3858 10.1036C12.6778 9.7854 13.1518 9.7854 13.4458 10.1015C13.7388 10.4176 13.7398 10.9317 13.4478 11.25L10.5385 14.4114C10.5101 14.4431 10.4794 14.4722 10.4466 14.4985L10.5318 14.4183C10.4996 14.4537 10.4647 14.4854 10.4275 14.5133C10.4048 14.5303 10.3818 14.5456 10.358 14.5596C10.3465 14.5664 10.3344 14.5731 10.3222 14.5793C10.3004 14.5906 10.278 14.6007 10.2551 14.6096C10.2436 14.614 10.2321 14.6181 10.2206 14.622C10.1924 14.6314 10.1635 14.639 10.1339 14.6448C10.1272 14.646 10.1212 14.6471 10.1151 14.6481C10.0912 14.6521 10.0663 14.6549 10.0411 14.6564C10.0275 14.6572 10.0142 14.6575 10.0008 14.6575L9.961 14.6543L9.89908 14.6501C9.89466 14.6495 9.89026 14.6488 9.88587 14.6481L10.0008 14.6575C9.95611 14.6575 9.91178 14.6532 9.86831 14.6448C9.83823 14.6391 9.80933 14.6315 9.78114 14.6221C9.76987 14.6183 9.75881 14.6143 9.74785 14.6101C9.72486 14.6012 9.70217 14.591 9.68007 14.5797C9.66665 14.5728 9.65329 14.5654 9.64015 14.5576C9.62168 14.5466 9.60387 14.5349 9.58657 14.5225C9.57471 14.514 9.56286 14.5049 9.55124 14.4954C9.52267 14.4722 9.49572 14.4469 9.47055 14.4197L9.4698 14.4183L6.5538 11.25C6.2618 10.9317 6.2628 10.4176 6.5558 10.1015C6.8498 9.7854 7.3238 9.7854 7.6158 10.1036L9.25 11.881L9.2508 0.811842C9.2508 0.363705 9.5868 0 10.0008 0Z" fill="#666E83"/>
</svg>
