<svg width="16" height="16" viewBox="0 0 16 16" fill="none" xmlns="http://www.w3.org/2000/svg">
<path fill-rule="evenodd" clip-rule="evenodd" d="M12.652 5.36864C12.9205 5.39075 13.1208 5.62544 13.0993 5.89394C13.0954 5.93815 12.743 10.3011 12.5402 12.1312C12.4141 13.267 11.6638 13.9581 10.5313 13.9789C9.66471 13.9938 8.82865 14.0023 8.01144 14.0023C7.13052 14.0023 6.27171 13.9925 5.422 13.975C4.33499 13.9535 3.58279 13.2488 3.45992 12.1358C3.25513 10.2894 2.90471 5.9375 2.90146 5.89394C2.87936 5.62544 3.0796 5.3901 3.3481 5.36864C3.6127 5.36149 3.85194 5.54743 3.8734 5.81528C3.87547 5.8435 4.01873 7.62069 4.17484 9.37907L4.20619 9.72997C4.28482 10.604 4.36452 11.4438 4.42926 12.0285C4.49882 12.6611 4.84013 12.9875 5.44215 12.9998C7.06746 13.0343 8.72593 13.0362 10.5138 13.0037C11.1535 12.9914 11.4994 12.6715 11.5709 12.024C11.7724 10.2075 12.1235 5.85949 12.1274 5.81528C12.1488 5.54743 12.3861 5.36019 12.652 5.36864ZM9.37592 1C9.97274 1 10.4974 1.40243 10.6515 1.97909L10.8166 2.79889C10.87 3.06764 11.1058 3.2639 11.3789 3.26821L13.5124 3.26828C13.7816 3.26828 14 3.48673 14 3.75588C14 4.02503 13.7816 4.24347 13.5124 4.24347L11.3979 4.24337C11.3946 4.24344 11.3914 4.24347 11.3881 4.24347L11.3722 4.24282L4.62756 4.24339C4.62231 4.24345 4.61706 4.24347 4.61181 4.24347L4.6018 4.24282L2.48759 4.24347C2.21844 4.24347 2 4.02503 2 3.75588C2 3.48673 2.21844 3.26828 2.48759 3.26828L4.62065 3.26763L4.68633 3.26348C4.93096 3.23174 5.13427 3.04594 5.18392 2.79889L5.3419 2.00834C5.50248 1.40243 6.02713 1 6.62395 1H9.37592ZM9.37592 1.97519H6.62395C6.46792 1.97519 6.33074 2.07986 6.29108 2.23004L6.1396 2.99068C6.12035 3.08703 6.09232 3.17988 6.05644 3.26846H9.94362C9.9077 3.17988 9.8796 3.08703 9.86027 2.99068L9.70229 2.20013C9.66913 2.07986 9.53195 1.97519 9.37592 1.97519Z" fill="#EB543C"/>
</svg>
