<svg width="20" height="20" viewBox="0 0 20 20" fill="none" xmlns="http://www.w3.org/2000/svg">
<path d="M10 18C12.1217 18 14.1566 17.1571 15.6569 15.6569C17.1571 14.1566 18 12.1217 18 10C18 7.87827 17.1571 5.84344 15.6569 4.34315C14.1566 2.84285 12.1217 2 10 2C7.87827 2 5.84344 2.84285 4.34315 4.34315C2.84285 5.84344 2 7.87827 2 10C2 12.1217 2.84285 14.1566 4.34315 15.6569C5.84344 17.1571 7.87827 18 10 18ZM9 8.5C9 9.328 8.552 10 8 10C7.448 10 7 9.328 7 8.5C7 7.672 7.448 7 8 7C8.552 7 9 7.672 9 8.5ZM6.285 11.567C6.39984 11.5007 6.53631 11.4827 6.6644 11.5171C6.79249 11.5514 6.90169 11.6352 6.968 11.75C7.27511 12.2823 7.71705 12.7244 8.24933 13.0316C8.7816 13.3388 9.38543 13.5004 10 13.5C10.6146 13.5004 11.2184 13.3388 11.7507 13.0316C12.2829 12.7244 12.7249 12.2823 13.032 11.75C13.0646 11.6927 13.1082 11.6424 13.1603 11.602C13.2124 11.5616 13.272 11.5319 13.3357 11.5146C13.3993 11.4973 13.4657 11.4928 13.5311 11.5013C13.5965 11.5098 13.6596 11.5311 13.7167 11.5641C13.7738 11.5971 13.8238 11.641 13.8638 11.6934C13.9039 11.7458 13.9332 11.8056 13.95 11.8693C13.9669 11.9331 13.971 11.9995 13.962 12.0649C13.9531 12.1302 13.9313 12.1931 13.898 12.25C13.5031 12.9344 12.9349 13.5026 12.2507 13.8976C11.5664 14.2926 10.7901 14.5004 10 14.5C9.20989 14.5004 8.43363 14.2926 7.74934 13.8976C7.06505 13.5026 6.49688 12.9344 6.102 12.25C6.0357 12.1352 6.01773 11.9987 6.05205 11.8706C6.08637 11.7425 6.17016 11.6333 6.285 11.567ZM12 10C11.448 10 11 9.328 11 8.5C11 7.672 11.448 7 12 7C12.552 7 13 7.672 13 8.5C13 9.328 12.552 10 12 10Z" fill="#C2C7D6"/>
</svg>
