<svg width="16" height="16" viewBox="0 0 16 16" fill="none" xmlns="http://www.w3.org/2000/svg">
<path d="M5.02466 0.400758C5.52863 0.416085 6.0166 0.50408 6.48937 0.664869H6.53657C6.56856 0.680068 6.59256 0.696867 6.60856 0.712066C6.78535 0.768862 6.95254 0.832858 7.11253 0.920853L7.41651 1.05684C7.5365 1.12084 7.68049 1.24003 7.76049 1.28883C7.84048 1.33603 7.92848 1.38482 8.00047 1.44002C8.88921 0.760863 9.96834 0.392887 11.0803 0.400758C11.585 0.400758 12.089 0.472082 12.5682 0.632871C15.5208 1.59281 16.5847 4.8326 15.696 7.66442C15.192 9.11152 14.3681 10.4322 13.2889 11.5114C11.7442 13.0073 10.0491 14.3352 8.22446 15.4791L8.02447 15.5999L7.81648 15.4711C5.9854 14.3352 4.28071 13.0073 2.72161 11.5034C1.64968 10.4242 0.824936 9.11152 0.31297 7.66442C-0.590972 4.8326 0.472959 1.59281 3.45757 0.616072C3.68955 0.536077 3.92874 0.480081 4.16872 0.448883H4.26471C4.4895 0.416085 4.71269 0.400758 4.93667 0.400758H5.02466ZM12.1522 2.92872C11.8242 2.81593 11.4642 2.99272 11.3443 3.3287C11.2323 3.66467 11.4083 4.03265 11.7442 4.15184C12.257 4.34383 12.6002 4.8486 12.6002 5.40776V5.43256C12.585 5.61575 12.6402 5.79254 12.7522 5.92853C12.8642 6.06452 13.0321 6.14371 13.2081 6.16051C13.5361 6.15171 13.8161 5.88853 13.8401 5.55175V5.45656C13.8641 4.33583 13.1849 3.3207 12.1522 2.92872Z" fill="#DA391F"/>
</svg>
