<svg width="16" height="16" viewBox="0 0 16 16" fill="none" xmlns="http://www.w3.org/2000/svg">
<g clip-path="url(#clip0_181_4733)">
<path fill-rule="evenodd" clip-rule="evenodd" d="M7.99888 1.36166C9.26964 0.55825 10.9577 0.336296 12.4161 0.803649C15.5883 1.82667 16.573 5.28492 15.6922 8.03667C14.3331 12.3585 8.52876 15.5823 8.28258 15.7175C8.19505 15.766 8.09814 15.7902 8.00123 15.7902C7.90432 15.7902 7.80819 15.7667 7.72066 15.7191C7.47604 15.5854 1.71385 12.4093 0.30945 8.03745C0.308669 8.03745 0.308669 8.03667 0.308669 8.03667C-0.572892 5.28414 0.408704 1.8251 3.57779 0.803649C5.06582 0.322229 6.68748 0.534022 7.99888 1.36166ZM3.93729 1.91967C1.37311 2.74652 0.72913 5.50453 1.42547 7.67951C2.52117 11.0885 6.85004 13.845 8.00045 14.5272C9.15476 13.8379 13.5149 11.051 14.5754 7.68264C15.2718 5.50531 14.6254 2.7473 12.0573 1.91967C10.8132 1.52031 9.36186 1.76336 8.35995 2.53864C8.1505 2.69963 7.85977 2.70276 7.64876 2.54333C6.58745 1.74539 5.20102 1.51171 3.93729 1.91967ZM11.3071 3.4717C12.3723 3.81635 13.1187 4.75965 13.2101 5.87489C13.2359 6.19766 12.996 6.48057 12.6732 6.50636C12.6568 6.50793 12.6411 6.50871 12.6247 6.50871C12.3223 6.50871 12.0659 6.2766 12.0409 5.97024C11.9894 5.32782 11.5595 4.78545 10.9476 4.58772C10.6389 4.48768 10.4701 4.1571 10.5693 3.84996C10.6701 3.54204 10.9976 3.37479 11.3071 3.4717Z" fill="#666E83"/>
</g>
<defs>
<clipPath id="clip0_181_4733">
<rect width="16" height="16" fill="white"/>
</clipPath>
</defs>
</svg>
