<svg width="25" height="24" viewBox="0 0 25 24" fill="none" xmlns="http://www.w3.org/2000/svg">
<path fill-rule="evenodd" clip-rule="evenodd" d="M14.217 15.2913C15.421 15.2913 16.401 16.2643 16.401 17.4603V20.5363C16.401 20.7933 16.607 20.9993 16.871 21.0053H18.777C20.279 21.0053 21.5 19.7993 21.5 18.3173V9.59325C21.493 9.08325 21.25 8.60325 20.833 8.28425L14.24 3.02625C13.355 2.32525 12.117 2.32525 11.229 3.02825L4.681 8.28225C4.248 8.61125 4.005 9.09125 4 9.61025V18.3173C4 19.7993 5.221 21.0053 6.723 21.0053H8.647C8.918 21.0053 9.138 20.7903 9.138 20.5263C9.138 20.4683 9.145 20.4103 9.157 20.3553V17.4603C9.157 16.2713 10.131 15.2993 11.326 15.2913H14.217ZM18.777 22.5053H16.853C15.751 22.4793 14.901 21.6143 14.901 20.5363V17.4603C14.901 17.0913 14.594 16.7913 14.217 16.7913H11.331C10.962 16.7933 10.657 17.0943 10.657 17.4603V20.5263C10.657 20.6013 10.647 20.6733 10.626 20.7413C10.518 21.7313 9.672 22.5053 8.647 22.5053H6.723C4.394 22.5053 2.5 20.6263 2.5 18.3173V9.60325C2.51 8.60925 2.968 7.69925 3.759 7.10025L10.294 1.85525C11.733 0.71525 13.738 0.71525 15.174 1.85325L21.756 7.10325C22.529 7.69225 22.987 8.60025 23 9.58225V18.3173C23 20.6263 21.106 22.5053 18.777 22.5053Z" fill="#666E83"/>
</svg>
