<svg width="16" height="16" viewBox="0 0 16 16" fill="none" xmlns="http://www.w3.org/2000/svg">
<path fill-rule="evenodd" clip-rule="evenodd" d="M11.0345 1C12.1627 1 13.1358 1.37677 13.8479 2.09031C14.5924 2.83542 15.0007 3.91941 14.9993 5.14303L15.0003 10.0518C15.0016 10.0707 15.0018 10.0896 15.001 10.1085L14.9993 10.8577C14.9993 13.3351 13.4045 15 11.031 15H4.96482C2.59336 15 1 13.3351 1 10.8577V5.14233C1 2.66493 2.59336 1 4.96482 1H11.0345ZM11.2285 8.60009C10.816 8.60009 10.3319 9.28276 9.9032 9.88545C9.31524 10.7134 8.70695 11.57 7.79064 11.57C7.17111 11.57 6.60351 11.3315 6.10326 11.1203C5.30763 10.7849 4.947 10.6776 4.59409 10.968C3.88763 11.5502 3.18958 12.6103 2.86884 13.1319C3.37509 13.6539 4.09423 13.9476 4.96482 13.9476H11.031C12.8025 13.9476 13.9469 12.7352 13.9469 10.8577L13.9469 10.2971L13.9307 10.28C13.3165 9.64723 12.2559 8.60009 11.2285 8.60009ZM11.0345 2.05242H4.96482C3.19605 2.05242 2.05242 3.26551 2.05242 5.14233V10.8577C2.05242 11.3268 2.12381 11.7543 2.2585 12.1318C2.66451 11.5188 3.27771 10.6889 3.92545 10.1556C4.80387 9.43291 5.74964 9.83002 6.5116 10.1507C6.95993 10.3394 7.3837 10.5176 7.79064 10.5176C8.1639 10.5176 8.63187 9.85808 9.04583 9.27645C9.62045 8.46538 10.2729 7.54767 11.2285 7.54767C12.2773 7.54767 13.2271 8.19215 13.9476 8.83172L13.9469 5.14233C13.9483 4.18603 13.6564 3.38759 13.1035 2.83402C12.5928 2.32254 11.8778 2.05242 11.0345 2.05242ZM5.81096 3.93941C6.81497 3.94011 7.63165 4.75679 7.63235 5.7601V5.7608C7.63235 6.76481 6.81568 7.58149 5.81096 7.58149C4.80625 7.58149 3.98958 6.76481 3.98958 5.7608C3.98958 4.75609 4.80625 3.93941 5.81096 3.93941ZM5.81026 4.99183C5.38649 4.99183 5.042 5.33632 5.042 5.7608C5.042 6.18457 5.38649 6.52907 5.81096 6.52907C6.23474 6.52907 6.57993 6.18457 6.57993 5.7615C6.57923 5.33703 6.23404 4.99253 5.81026 4.99183Z" fill="#666E83"/>
</svg>
