<svg width="16" height="16" viewBox="0 0 16 16" fill="none" xmlns="http://www.w3.org/2000/svg">
<path fill-rule="evenodd" clip-rule="evenodd" d="M14.824 1.1758C15.0584 1.41019 15.0584 1.78939 14.824 2.02379L10.4534 6.39458C10.4524 6.39558 10.4515 6.39658 10.4505 6.39757L4.99532 11.8535L4.99035 11.8575L2.02496 14.8236C1.90816 14.9412 1.75456 14.9996 1.60097 14.9996C1.44737 14.9996 1.29377 14.9412 1.17697 14.8236C0.942573 14.5892 0.942573 14.21 1.17697 13.9756L3.30414 11.8482C2.76141 11.8225 2.3016 11.7516 1.77776 11.3039C1.07217 10.7006 1.0042 9.503 1 8.44664L1.00017 8.10075L1.00097 7.90636L1.00017 7.71276L1 7.36685C1.00421 6.31037 1.07225 5.11223 1.77856 4.5096C2.37056 4.0032 2.87775 3.984 3.51854 3.96C3.69534 3.9528 3.89454 3.9456 4.12813 3.9272C4.32893 3.9016 4.91213 3.42161 5.29772 3.10481C6.42251 2.17763 7.96409 0.908841 9.40567 1.76323C9.43207 1.77763 9.45687 1.79523 9.48007 1.81443C10.1709 2.37677 10.4443 3.23799 10.5589 4.59249L13.976 1.1758C14.2104 0.941401 14.5896 0.941401 14.824 1.1758ZM10.034 8.9333C10.3652 8.9381 10.6308 9.2101 10.626 9.5413C10.5956 11.9053 10.41 13.2436 9.47959 13.9996C9.45559 14.018 9.43159 14.0356 9.40599 14.05C9.06679 14.2508 8.7228 14.3324 8.386 14.3324C7.57801 14.3324 6.81082 13.8644 6.24203 13.4524C5.97323 13.2588 5.91323 12.8837 6.10683 12.6157C6.30203 12.3469 6.67722 12.2853 6.94522 12.4813C7.99561 13.2404 8.4692 13.1901 8.7564 13.0397C9.22199 12.6245 9.39879 11.6901 9.42599 9.5253C9.43079 9.1941 9.67319 8.9365 10.034 8.9333ZM8.38408 2.68882C7.69129 2.68882 6.8009 3.42161 6.06011 4.0312C5.34812 4.6168 4.78653 5.07919 4.22253 5.12399C3.97054 5.14319 3.75454 5.15199 3.56414 5.15919C2.97295 5.18079 2.82335 5.19519 2.55775 5.42239C2.19536 5.73198 2.19856 6.97037 2.20016 7.70956L2.20096 7.90636L2.20016 8.10395C2.19856 8.84314 2.19536 10.0815 2.55775 10.3911C2.82895 10.6231 2.98255 10.6375 3.58814 10.6583C3.77134 10.6647 3.97854 10.6719 4.21773 10.6887C4.28653 10.6935 4.35693 10.7047 4.42893 10.7223L9.41927 5.73198C9.36087 3.952 9.18087 3.15361 8.75688 2.77442C8.64168 2.71522 8.51688 2.68882 8.38408 2.68882Z" fill="#666E83"/>
</svg>
