<svg width="16" height="16" viewBox="0 0 16 16" fill="none" xmlns="http://www.w3.org/2000/svg">
<path d="M6.48324 -0.0714874C5.34756 -0.0715776 4.2316 0.225297 3.24609 0.789679C2.26058 1.35406 1.43977 2.16633 0.865123 3.14589C0.290473 4.12545 -0.0180483 5.23825 -0.0298265 6.37386C-0.0416046 7.50948 0.24377 8.62843 0.797979 9.6197L0.00040026 11.7058C-0.065902 11.8792 -0.0827206 12.0677 -0.0481788 12.2501C-0.0136371 12.4325 0.0709065 12.6017 0.19602 12.7389C0.321133 12.8761 0.481896 12.9758 0.660374 13.0269C0.838851 13.078 1.02802 13.0786 1.20679 13.0285L3.69872 12.3301C4.58142 12.7471 5.54659 12.9604 6.52284 12.9542C7.49909 12.9479 8.46144 12.7223 9.33872 12.2939C10.216 11.8655 10.9857 11.2454 11.591 10.4795C12.1963 9.7135 12.6217 8.82125 12.8356 7.86871C13.0496 6.91617 13.0467 5.92772 12.8271 4.97647C12.6075 4.02521 12.1769 3.1355 11.567 2.37313C10.9572 1.61075 10.1838 0.995227 9.30398 0.572079C8.42418 0.148932 7.46051 -0.0710134 6.48424 -0.0714874H6.48324ZM0.972325 6.44141C0.97277 5.24046 1.36551 4.07253 2.09078 3.11532C2.81606 2.15811 3.83416 1.46401 4.9902 1.13865C6.14623 0.81328 7.3769 0.874452 8.49497 1.31285C9.61304 1.75126 10.5573 2.54289 11.1841 3.56731C11.8109 4.59172 12.0858 5.79284 11.9672 6.98792C11.8485 8.18299 11.3427 9.30659 10.5268 10.1878C9.71081 11.0689 8.62933 11.6595 7.44689 11.8695C6.26444 12.0795 5.04576 11.8975 3.97627 11.3511L3.80193 11.261L0.936253 12.0635L1.90718 9.52251L1.77892 9.31209C1.25002 8.44809 0.970827 7.45444 0.972325 6.44141ZM9.45211 15.9603C8.51459 15.9613 7.58794 15.7594 6.73578 15.3686C5.88362 14.9777 5.12614 14.407 4.51534 13.6958C5.07946 13.8491 5.67063 13.9372 6.27883 13.9533C7.2067 14.6086 8.31514 14.9598 9.45111 14.9583C10.3549 14.9583 11.2066 14.7408 11.9581 14.3571L12.1324 14.2669L14.9981 15.0695L14.0272 12.5285L14.1554 12.318C14.6664 11.4824 14.962 10.5004 14.962 9.44736C14.9636 8.33471 14.6267 7.2479 13.9961 6.33119C13.9879 5.73511 13.9088 5.14212 13.7606 4.56469C14.4539 5.17514 15.009 5.9264 15.389 6.76837C15.7689 7.61033 15.965 8.52364 15.964 9.44736C15.964 10.6006 15.6634 11.6848 15.1374 12.6257L15.9339 14.7118C16.0002 14.8852 16.0171 15.0736 15.9825 15.256C15.948 15.4385 15.8634 15.6077 15.7383 15.7449C15.6132 15.882 15.4525 15.9817 15.274 16.0329C15.0955 16.084 14.9063 16.0845 14.7276 16.0344L12.2356 15.336C11.391 15.7368 10.4461 15.9603 9.45011 15.9603H9.45211Z" fill="#666E83"/>
<path d="M9.22093 5.43939C8.76887 5.43939 8.41856 5.7897 8.41856 6.22219C8.41856 6.65469 8.76887 7.00499 9.22093 7.00499C9.63386 7.00499 9.98417 6.65469 9.98417 6.22219C9.98417 5.7897 9.63386 5.43939 9.22093 5.43939ZM3.74133 5.43939C3.28927 5.43939 2.93896 5.7897 2.93896 6.22219C2.93896 6.65469 3.28927 7.00499 3.74133 7.00499C4.15426 7.00499 4.50456 6.65469 4.50456 6.22219C4.50456 5.7897 4.15426 5.43939 3.74133 5.43939Z" fill="#666E83"/>
<path d="M6.48059 5.43939C6.02853 5.43939 5.67822 5.7897 5.67822 6.22219C5.67822 6.65469 6.02853 7.00499 6.48059 7.00499C6.89352 7.00499 7.24382 6.65469 7.24382 6.22219C7.24382 5.7897 6.89352 5.43939 6.48059 5.43939Z" fill="#666E83"/>
</svg>
