<svg width="16" height="16" viewBox="0 0 16 16" fill="none" xmlns="http://www.w3.org/2000/svg">
<g clip-path="url(#clip0_181_4720)">
<path fill-rule="evenodd" clip-rule="evenodd" d="M9.21162 2.66732C9.21162 2.52589 9.15543 2.39024 9.05542 2.29023C8.95541 2.19022 8.81976 2.13403 8.67832 2.13403H1.60048C1.17617 2.13403 0.769237 2.30259 0.469202 2.60263C0.169168 2.90266 0.000610352 3.30959 0.000610352 3.73391L0.000610352 14.3997C0.000610352 14.824 0.169168 15.231 0.469202 15.531C0.769237 15.831 1.17617 15.9996 1.60048 15.9996H12.2663C12.6906 15.9996 13.0976 15.831 13.3976 15.531C13.6976 15.231 13.8662 14.824 13.8662 14.3997V7.32189C13.8662 7.18045 13.81 7.04481 13.71 6.9448C13.61 6.84478 13.4743 6.7886 13.3329 6.7886C13.1915 6.7886 13.0558 6.84478 12.9558 6.9448C12.8558 7.04481 12.7996 7.18045 12.7996 7.32189V14.3997C12.7996 14.5412 12.7434 14.6768 12.6434 14.7768C12.5434 14.8768 12.4077 14.933 12.2663 14.933H1.60048C1.45905 14.933 1.3234 14.8768 1.22339 14.7768C1.12338 14.6768 1.06719 14.5412 1.06719 14.3997V3.73391C1.06719 3.59247 1.12338 3.45682 1.22339 3.35681C1.3234 3.2568 1.45905 3.20062 1.60048 3.20062H8.67832C8.81976 3.20062 8.95541 3.14443 9.05542 3.04442C9.15543 2.94441 9.21162 2.80876 9.21162 2.66732Z" fill="#666E83"/>
<path fill-rule="evenodd" clip-rule="evenodd" d="M15.9993 0.534024C15.9993 0.392586 15.9431 0.256941 15.8431 0.15693C15.7431 0.0569183 15.6074 0.000732422 15.466 0.000732422L10.1331 0.000732422C9.99162 0.000732422 9.85598 0.0569183 9.75596 0.15693C9.65595 0.256941 9.59977 0.392586 9.59977 0.534024C9.59977 0.675461 9.65595 0.811106 9.75596 0.911117C9.85598 1.01113 9.99162 1.06731 10.1331 1.06731H14.1786L5.48916 9.7557C5.43958 9.80528 5.40024 9.86414 5.37341 9.92893C5.34658 9.99371 5.33276 10.0631 5.33276 10.1333C5.33276 10.2034 5.34658 10.2728 5.37341 10.3376C5.40024 10.4024 5.43958 10.4613 5.48916 10.5108C5.53874 10.5604 5.59761 10.5998 5.66239 10.6266C5.72717 10.6534 5.79661 10.6672 5.86673 10.6672C5.93685 10.6672 6.00628 10.6534 6.07107 10.6266C6.13585 10.5998 6.19472 10.5604 6.2443 10.5108L14.9327 1.82139V5.86694C14.9327 6.00837 14.9889 6.14402 15.0889 6.24403C15.1889 6.34404 15.3245 6.40023 15.466 6.40023C15.6074 6.40023 15.7431 6.34404 15.8431 6.24403C15.9431 6.14402 15.9993 6.00837 15.9993 5.86694V0.534024Z" fill="#666E83"/>
</g>
<defs>
<clipPath id="clip0_181_4720">
<rect width="16" height="16" fill="white"/>
</clipPath>
</defs>
</svg>
