<svg width="25" height="24" viewBox="0 0 25 24" fill="none" xmlns="http://www.w3.org/2000/svg">
<path fill-rule="evenodd" clip-rule="evenodd" d="M16.4088 2C19.5528 2 21.6648 4.153 21.6648 7.357V16.553C21.6648 19.785 19.6178 21.887 16.4498 21.907L8.75676 21.91C5.61276 21.91 3.49976 19.757 3.49976 16.553V7.357C3.49976 4.124 5.54676 2.023 8.71476 2.004L16.4078 2H16.4088ZM16.4088 3.5L8.71976 3.504C6.39176 3.518 4.99976 4.958 4.99976 7.357V16.553C4.99976 18.968 6.40476 20.41 8.75576 20.41L16.4448 20.407C18.7728 20.393 20.1648 18.951 20.1648 16.553V7.357C20.1648 4.942 18.7608 3.5 16.4088 3.5ZM16.2159 15.4737C16.6299 15.4737 16.9659 15.8097 16.9659 16.2237C16.9659 16.6377 16.6299 16.9737 16.2159 16.9737H8.99586C8.58186 16.9737 8.24586 16.6377 8.24586 16.2237C8.24586 15.8097 8.58186 15.4737 8.99586 15.4737H16.2159ZM16.2159 11.2872C16.6299 11.2872 16.9659 11.6232 16.9659 12.0372C16.9659 12.4512 16.6299 12.7872 16.2159 12.7872H8.99586C8.58186 12.7872 8.24586 12.4512 8.24586 12.0372C8.24586 11.6232 8.58186 11.2872 8.99586 11.2872H16.2159ZM11.7506 7.1104C12.1646 7.1104 12.5006 7.4464 12.5006 7.8604C12.5006 8.2744 12.1646 8.6104 11.7506 8.6104H8.99556C8.58156 8.6104 8.24556 8.2744 8.24556 7.8604C8.24556 7.4464 8.58156 7.1104 8.99556 7.1104H11.7506Z" fill="#666E83"/>
</svg>
