<svg width="16" height="16" viewBox="0 0 16 16" fill="none" xmlns="http://www.w3.org/2000/svg">
<path fill-rule="evenodd" clip-rule="evenodd" d="M13.409 9.14404C13.2977 9.32546 13.101 9.4359 12.8892 9.4359L3.7223 9.4359L3.7223 15.3846C3.7223 15.7245 3.44869 16 3.11118 16C2.77366 16 2.50005 15.7245 2.50005 15.3846L2.50005 0.615384C2.50005 0.275517 2.77366 -4.68866e-07 3.11118 -4.54113e-07C3.44869 -4.3936e-07 3.7223 0.275517 3.7223 0.615384L3.7223 1.64103L12.8892 1.64103C13.101 1.64103 13.2977 1.75146 13.409 1.93288C13.5204 2.11431 13.5305 2.34086 13.4358 2.53162L11.9428 5.53846L13.4358 8.5453C13.5305 8.73607 13.5204 8.96261 13.409 9.14404ZM3.7223 2.87179L3.7223 8.20513L11.9004 8.20513L10.7129 5.81367C10.6269 5.64042 10.6269 5.4365 10.7129 5.26325L11.9004 2.87179L3.7223 2.87179Z" fill="#666E83"/>
</svg>
