<svg width="20" height="20" viewBox="0 0 20 20" fill="none" xmlns="http://www.w3.org/2000/svg">
<g clip-path="url(#clip0_181_3101)">
<rect width="20" height="20" rx="10" fill="#4EC43B"/>
<path d="M10.5299 5.37992C10.2499 5.09992 9.74994 5.09992 9.46994 5.37992L5.71994 9.14992C5.42994 9.43992 5.42994 9.91992 5.71994 10.2099C6.01994 10.4999 6.48994 10.4999 6.78994 10.2099L9.24994 7.72992V14.0799C9.24994 14.4999 9.58994 14.8299 9.99994 14.8299C10.4199 14.8299 10.7499 14.4999 10.7499 14.0799V7.72992L13.2199 10.2099C13.3599 10.3499 13.5599 10.4299 13.7499 10.4299C13.9389 10.4299 14.1299 10.3499 14.2799 10.2099C14.5699 9.91992 14.5699 9.43992 14.2799 9.14992L10.5299 5.37992Z" fill="white"/>
</g>
<defs>
<clipPath id="clip0_181_3101">
<rect width="20" height="20" fill="white"/>
</clipPath>
</defs>
</svg>
