<svg width="20" height="21" viewBox="0 0 20 21" fill="none" xmlns="http://www.w3.org/2000/svg">
<g clip-path="url(#clip0_187_1963)">
<path fill-rule="evenodd" clip-rule="evenodd" d="M9.63122 0.0222168C14.6661 0.0222168 18.7615 4.23809 18.7615 9.42106C18.7615 11.8664 17.8499 14.0966 16.3581 15.7704L19.2935 18.7858C19.5682 19.0686 19.5691 19.5261 19.2944 19.8089C19.1575 19.9518 18.9766 20.0222 18.7966 20.0222C18.6175 20.0222 18.4375 19.9518 18.2996 19.8108L15.3288 16.7612C13.7661 18.0495 11.7846 18.8209 9.63122 18.8209C4.59635 18.8209 0.5 14.604 0.5 9.42106C0.5 4.23809 4.59635 0.0222168 9.63122 0.0222168ZM9.63122 1.46997C5.37173 1.46997 1.90639 5.03628 1.90639 9.42106C1.90639 13.8058 5.37173 17.3731 9.63122 17.3731C13.8898 17.3731 17.3551 13.8058 17.3551 9.42106C17.3551 5.03628 13.8898 1.46997 9.63122 1.46997Z" fill="#666E83"/>
</g>
<defs>
<clipPath id="clip0_187_1963">
<rect width="20" height="20" fill="white" transform="translate(0 0.0222168)"/>
</clipPath>
</defs>
</svg>
