<svg width="25" height="24" viewBox="0 0 25 24" fill="none" xmlns="http://www.w3.org/2000/svg">
<path d="M16.9985 9.97262C17.3208 9.65032 17.3208 9.12892 16.9985 8.80662C16.6762 8.48432 16.1548 8.48432 15.8325 8.80662L11.1949 13.4431L9.16645 11.4169C8.84415 11.0946 8.32275 11.0946 8.00045 11.4169C7.67815 11.7392 7.67815 12.2606 8.00045 12.5829L10.6119 15.1932C10.7725 15.3549 10.9848 15.4352 11.1949 15.4352C11.4061 15.4352 11.6173 15.3549 11.7779 15.1932L16.9985 9.97262Z" fill="#666E83"/>
<path fill-rule="evenodd" clip-rule="evenodd" d="M1.50024 12C1.50024 5.92487 6.42511 1 12.5002 1C18.5754 1 23.5002 5.92487 23.5002 12C23.5002 18.0751 18.5754 23 12.5002 23C6.42511 23 1.50024 18.0751 1.50024 12ZM12.5002 21.4C7.30877 21.4 3.10024 17.1915 3.10024 12C3.10024 6.80852 7.30877 2.6 12.5002 2.6C17.6917 2.6 21.9002 6.80852 21.9002 12C21.9002 17.1915 17.6917 21.4 12.5002 21.4Z" fill="#666E83"/>
</svg>
