<svg width="16" height="16" viewBox="0 0 16 16" fill="none" xmlns="http://www.w3.org/2000/svg">
<g clip-path="url(#clip0_181_4530)">
<path fill-rule="evenodd" clip-rule="evenodd" d="M8.19729 2.26248C8.22155 2.27735 8.24582 2.293 8.26773 2.311C9.32567 3.14202 9.40336 4.6869 9.40709 7.772L9.40726 8.06576C9.40726 11.3482 9.35873 12.9643 8.26773 13.8221C8.24582 13.8393 8.22155 13.8557 8.19651 13.8698C7.8725 14.0545 7.543 14.1328 7.2143 14.1328C6.12564 14.1328 5.04638 13.2758 4.20582 12.609C3.82624 12.3077 3.25257 11.8522 3.05456 11.8318C2.82994 11.8146 2.63585 11.8076 2.46445 11.8029C1.8399 11.7802 1.34605 11.7637 0.765334 11.2848C0.0665918 10.7093 0.00242306 9.56897 0 8.56388L0.00069342 8.23481L0.00147606 8.06576L0.00069342 7.89671L0 7.56767C0.00242306 6.5627 0.0665918 5.42302 0.765334 4.84754C1.34684 4.36857 1.84147 4.35135 2.46758 4.33022C2.63819 4.32395 2.83151 4.31769 3.05612 4.30126C3.25257 4.28013 3.82624 3.82463 4.20582 3.52331C5.30074 2.6538 6.80028 1.46653 8.19729 2.26248ZM14.4392 2.96044C16.5626 6.01587 16.5626 10.1193 14.4392 13.1723C14.325 13.3359 14.1426 13.4236 13.9571 13.4236C13.8413 13.4236 13.7247 13.3891 13.6222 13.3179C13.3561 13.1332 13.2903 12.7677 13.4758 12.5008C15.3487 9.80855 15.3487 6.32658 13.4758 3.6296C13.2903 3.3635 13.3561 2.998 13.623 2.81252C13.889 2.62703 14.2538 2.69356 14.4392 2.96044ZM7.20647 3.17895C6.52714 3.17895 5.65841 3.86846 4.93525 4.44292C4.23948 4.99468 3.69006 5.43139 3.14221 5.47209C2.8996 5.48931 2.69141 5.49713 2.50828 5.50339C1.92364 5.52296 1.77572 5.53627 1.51197 5.75384C1.20929 6.00243 1.17565 6.92213 1.17406 7.61218L1.17465 7.89123L1.17544 8.0642V8.06733L1.17465 8.24029L1.17406 8.5196C1.17565 9.21018 1.20929 10.1299 1.51197 10.3785C1.77494 10.596 1.92286 10.6086 2.50593 10.6297C2.68985 10.6352 2.89881 10.643 3.14221 10.661C3.69006 10.7009 4.23948 11.1376 4.93525 11.6894C5.7985 12.3742 6.86759 13.2234 7.57666 12.8704C8.15076 12.3728 8.22865 11.0799 8.23308 8.34417L8.23329 8.06576C8.23329 5.13868 8.1699 3.77611 7.57666 3.26113C7.46161 3.20399 7.33717 3.17895 7.20647 3.17895ZM12.5077 4.88957C13.6308 6.85243 13.6308 9.28645 12.5077 11.243C12.3989 11.4324 12.2017 11.5381 11.9982 11.5381C11.8988 11.5381 11.7986 11.5131 11.7063 11.4598C11.4253 11.2986 11.3282 10.9394 11.4895 10.6592C12.4059 9.06183 12.4059 7.07549 11.4895 5.47342C11.3282 5.19167 11.4261 4.83322 11.707 4.67199C11.9888 4.5139 12.3465 4.6086 12.5077 4.88957Z" fill="#666E83"/>
</g>
<defs>
<clipPath id="clip0_181_4530">
<rect width="16" height="16" fill="white"/>
</clipPath>
</defs>
</svg>
