<svg width="25" height="18" viewBox="0 0 25 18" fill="none" xmlns="http://www.w3.org/2000/svg">
<path d="M12.4444 11.7705C16.1875 11.7705 19.3836 12.3639 19.3836 14.7385C19.3836 17.1122 16.208 17.7273 12.4444 17.7273C8.70129 17.7273 5.50519 17.1338 5.50519 14.7602C5.50519 12.3855 8.68077 11.7705 12.4444 11.7705ZM18.4292 10.3406C19.8602 10.314 21.3987 10.5105 21.9671 10.6501C23.1715 10.8868 23.9637 11.3702 24.2919 12.0727C24.5694 12.6494 24.5694 13.3185 24.2919 13.8942C23.7899 14.9838 22.1713 15.3335 21.5422 15.4239C21.4123 15.4436 21.3078 15.3306 21.3215 15.1999C21.6429 12.1808 19.0866 10.7493 18.4253 10.4202C18.3969 10.4054 18.3911 10.3828 18.394 10.3691C18.396 10.3592 18.4077 10.3435 18.4292 10.3406ZM6.30209 10.3385L6.57156 10.341C6.59305 10.3439 6.6038 10.3596 6.60575 10.3685C6.60868 10.3832 6.60282 10.4048 6.57547 10.4205C5.9132 10.7497 3.3569 12.1812 3.67827 15.1993C3.69195 15.331 3.58841 15.443 3.45849 15.4243C2.82943 15.3339 1.21087 14.9842 0.708792 13.8946C0.430403 13.3179 0.430403 12.6498 0.708792 12.0731C1.037 11.3706 1.82821 10.8872 3.03261 10.6495C3.60208 10.5109 5.13957 10.3144 6.57156 10.341L6.30209 10.3385ZM12.4444 0.272705C14.9929 0.272705 17.0363 2.32609 17.0363 4.89036C17.0363 7.45365 14.9929 9.509 12.4444 9.509C9.89592 9.509 7.85244 7.45365 7.85244 4.89036C7.85244 2.32609 9.89592 0.272705 12.4444 0.272705ZM18.6783 1.04277C21.1398 1.04277 23.0729 3.37223 22.4145 5.96696C21.9701 7.71381 20.3613 8.87412 18.5689 8.82696C18.3891 8.82205 18.2123 8.80535 18.0414 8.77587C17.9173 8.75426 17.8548 8.61376 17.9251 8.50962C18.6089 7.49767 18.9986 6.28037 18.9986 4.97368C18.9986 3.60999 18.5728 2.33866 17.8333 1.29625C17.8099 1.26383 17.7923 1.21372 17.8157 1.17639C17.8353 1.14593 17.8714 1.13021 17.9056 1.12235C18.1547 1.07126 18.4106 1.04277 18.6783 1.04277ZM6.32101 1.04267C6.58866 1.04267 6.84458 1.07117 7.09464 1.12226C7.12785 1.13012 7.16497 1.14682 7.18451 1.17629C7.20697 1.21363 7.19037 1.26373 7.16692 1.29615C6.42748 2.33857 6.0016 3.6099 6.0016 4.97358C6.0016 6.28028 6.39134 7.49757 7.07511 8.50952C7.14544 8.61367 7.08292 8.75416 6.95887 8.77578C6.78695 8.80623 6.61112 8.82195 6.43139 8.82687C4.63896 8.87402 3.03016 7.71372 2.58572 5.96687C1.92638 3.37214 3.85947 1.04267 6.32101 1.04267Z" fill="#2C56EA"/>
</svg>
